<?xml version="1.0" standalone="no"?>
<!DOCTYPE svg PUBLIC "-//W3C//DTD SVG 20010904//EN"
 "http://www.w3.org/TR/2001/REC-SVG-20010904/DTD/svg10.dtd">
<svg version="1.0" xmlns="http://www.w3.org/2000/svg"
 width="286.000000pt" height="298.000000pt" viewBox="0 0 286.000000 298.000000"
 preserveAspectRatio="xMidYMid meet">

<g transform="translate(0.000000,298.000000) scale(0.100000,-0.100000)"
fill="#000000" stroke="none">
<path d="M470 2631 c-19 -10 -44 -34 -55 -52 -20 -33 -20 -52 -20 -1099 0
-1047 0 -1066 20 -1099 11 -18 36 -42 55 -52 33 -18 75 -19 910 -19 835 0 877
1 910 19 19 10 44 34 55 52 20 33 20 52 20 1099 0 1047 0 1066 -20 1099 -11
18 -36 42 -55 52 -33 18 -75 19 -910 19 -835 0 -877 -1 -910 -19z m220 -1071
l0 -1010 690 0 690 0 0 1010 0 1010 83 0 c59 0 89 -5 105 -16 l22 -15 0 -1059
0 -1059 -22 -15 c-20 -14 -120 -16 -879 -16 -801 0 -858 1 -878 17 l-22 18 1
1055 0 1055 21 18 c16 13 40 17 105 17 l84 0 0 -1010z m1358 538 l2 -468 -670
0 -670 0 0 463 c0 255 3 467 7 470 3 4 304 6 667 5 l661 -3 3 -467z m-578
-631 l0 -124 -41 -36 c-22 -21 -45 -37 -51 -37 -6 0 -28 18 -50 40 l-38 41 0
119 0 120 90 0 90 0 0 -123z m36 -266 c105 -45 176 -150 182 -268 5 -97 -16
-158 -79 -227 -66 -72 -130 -100 -229 -100 -99 0 -163 28 -229 100 -58 63 -81
123 -81 209 0 84 23 145 77 205 95 106 231 136 359 81z"/>
<path d="M1292 2434 c-29 -7 -63 -19 -74 -25 -43 -23 -121 -105 -146 -154 -24
-44 -27 -61 -27 -150 0 -84 4 -107 23 -146 36 -74 87 -125 160 -161 59 -29 76
-33 152 -33 71 0 94 4 142 27 69 32 136 97 169 163 21 43 24 64 24 150 0 89
-3 106 -27 150 -48 92 -127 154 -225 180 -69 18 -102 18 -171 -1z m196 -54
c32 -12 40 -24 23 -34 -5 -3 -11 -16 -14 -28 -5 -21 -3 -20 18 6 l23 29 27
-21 c28 -23 70 -71 64 -76 -2 -1 -15 -11 -29 -21 -23 -16 -17 -16 25 1 18 7
45 -50 45 -96 0 -28 -3 -30 -37 -31 l-38 -2 40 -6 c44 -7 47 -16 23 -93 -12
-40 -25 -45 -61 -27 -15 7 -12 2 8 -14 l30 -25 -49 -47 -49 -47 -20 31 c-24
39 -33 35 -12 -5 15 -29 15 -29 -22 -46 -46 -21 -154 -21 -205 -1 l-37 15 14
34 c17 42 13 43 -13 3 l-19 -31 -49 47 -49 47 30 25 c20 16 23 21 8 14 -38
-19 -50 -13 -61 32 -21 78 -20 81 18 88 l35 6 -37 2 c-40 1 -39 -3 -16 89 11
45 13 45 63 27 15 -6 13 -3 -5 10 -14 10 -27 20 -28 21 -7 5 43 65 66 80 23
15 26 15 48 -12 21 -26 22 -27 17 -6 -3 12 -9 25 -14 28 -19 12 -7 24 39 38
52 16 149 14 200 -4z"/>
<path d="M1367 2294 c-4 -4 -7 -54 -7 -111 0 -97 1 -103 20 -103 20 0 21 5 18
107 -3 98 -11 127 -31 107z"/>
<path d="M1321 2146 c-22 -27 -18 -76 8 -98 67 -53 161 21 114 91 l-18 26 -5
-45 c-5 -42 -7 -45 -37 -48 -34 -3 -38 2 -45 67 -3 22 -4 23 -17 7z"/>
<path d="M1324 1129 c-23 -5 -60 -26 -84 -46 -107 -92 -107 -244 0 -335 84
-72 196 -72 280 0 107 91 107 243 0 334 -36 32 -116 62 -148 57 -4 -1 -25 -5
-48 -10z"/>
</g>
</svg>
