<?xml version="1.0" standalone="no"?>
<!DOCTYPE svg PUBLIC "-//W3C//DTD SVG 20010904//EN"
 "http://www.w3.org/TR/2001/REC-SVG-20010904/DTD/svg10.dtd">
<svg version="1.0" xmlns="http://www.w3.org/2000/svg"
 width="590.000000pt" height="568.000000pt" viewBox="0 0 590.000000 568.000000"
 preserveAspectRatio="xMidYMid meet">

<g transform="translate(0.000000,568.000000) scale(0.100000,-0.100000)"
fill="#000000" stroke="none">
<path d="M3020 5655 c-1138 -140 -2124 -828 -2630 -1834 -222 -443 -362 -1003
-377 -1506 -16 -563 97 -1071 317 -1430 93 -153 251 -327 382 -423 65 -48 187
-117 194 -110 2 3 -14 43 -35 89 -103 220 -146 511 -107 731 16 88 56 228 65
228 3 0 5 -29 3 -64 -4 -78 12 -247 33 -350 89 -430 350 -738 745 -880 166
-60 408 -102 547 -94 l63 3 -61 50 c-80 65 -203 213 -258 309 -49 87 -96 214
-109 298 l-9 57 80 -71 c267 -235 565 -389 890 -460 87 -19 133 -22 307 -22
174 0 220 3 303 22 215 48 450 146 635 265 l84 54 -164 6 c-161 7 -356 30
-513 62 -724 146 -1260 487 -1543 982 -75 131 -180 393 -170 423 2 6 22 -14
46 -43 57 -72 319 -328 412 -403 451 -365 942 -589 1480 -675 225 -36 644 -36
845 0 l40 7 -65 33 c-190 97 -387 272 -502 446 -146 220 -208 431 -208 709 0
225 32 377 115 552 140 293 452 549 815 667 l101 34 -100 95 c-276 265 -645
415 -1034 419 -139 2 -61 15 189 33 330 24 535 29 726 17 394 -24 622 -84 748
-198 81 -72 112 -159 92 -250 l-10 -42 32 5 c223 39 380 134 447 270 29 59 31
69 27 148 -4 72 -10 95 -45 167 -93 195 -295 383 -534 497 l-77 37 -6 73 c-15
165 -90 354 -195 493 -246 324 -700 520 -1341 578 -154 15 -540 12 -670 -4z
m665 -511 c156 -27 274 -84 483 -231 147 -104 483 -395 471 -408 -3 -3 -158
11 -345 30 -656 68 -637 64 -717 156 -51 58 -195 312 -207 364 -9 41 6 75 40
92 34 17 167 16 275 -3z"/>
</g>
</svg>
