<?xml version="1.0" standalone="no"?>
<!DOCTYPE svg PUBLIC "-//W3C//DTD SVG 20010904//EN"
 "http://www.w3.org/TR/2001/REC-SVG-20010904/DTD/svg10.dtd">
<svg version="1.0" xmlns="http://www.w3.org/2000/svg"
 width="526.000000pt" height="526.000000pt" viewBox="0 0 526.000000 526.000000"
 preserveAspectRatio="xMidYMid meet">

<g transform="translate(0.000000,526.000000) scale(0.100000,-0.100000)"
fill="#000000" stroke="none">
<path d="M4190 4823 c-25 -2 -157 -14 -295 -28 -300 -30 -873 -81 -1505 -135
-256 -22 -604 -54 -775 -70 -170 -16 -434 -41 -585 -55 -396 -36 -511 -61
-587 -128 -50 -44 -55 -65 -39 -160 15 -83 36 -275 81 -737 27 -277 48 -426
90 -650 15 -80 37 -222 49 -315 l21 -171 160 17 c170 19 286 42 322 65 12 8
27 31 33 51 20 73 60 320 105 658 68 509 83 587 118 593 12 3 22 -7 32 -32 18
-43 145 -530 295 -1136 l114 -455 31 150 c18 83 35 160 39 172 13 40 47 72 88
84 23 6 51 17 63 25 31 20 76 109 118 230 43 123 82 203 104 211 32 12 80 -72
150 -262 101 -273 140 -318 182 -205 22 60 69 85 208 111 59 11 131 31 160 44
48 22 55 29 83 91 58 128 83 134 173 42 33 -35 72 -71 86 -80 51 -35 204 -13
249 35 41 43 60 149 147 807 42 315 84 500 115 500 17 0 33 -43 71 -190 20
-80 64 -248 97 -375 33 -126 72 -281 86 -343 41 -173 86 -323 108 -362 11 -19
36 -95 54 -169 19 -74 41 -146 50 -159 14 -22 17 -23 31 -9 12 12 18 50 24
152 8 145 26 206 70 233 12 8 64 18 116 23 172 16 207 34 219 116 25 165 -89
1487 -147 1705 -26 98 -146 131 -409 111z"/>
<path d="M3810 3611 c-5 -11 -10 -42 -10 -70 0 -171 -98 -720 -150 -837 -16
-38 -23 -43 -71 -55 -67 -16 -269 -17 -326 0 -23 6 -49 18 -57 26 -22 22 -35
19 -81 -24 -49 -45 -122 -74 -225 -90 -97 -15 -140 -29 -169 -55 -13 -11 -47
-70 -76 -131 -54 -115 -81 -149 -112 -143 -31 5 -118 189 -223 472 l-22 58
-39 -99 c-49 -125 -91 -176 -175 -214 -43 -19 -67 -37 -78 -56 -16 -31 -32
-136 -41 -273 -22 -306 -52 -475 -85 -475 -33 0 -128 337 -331 1172 -73 304
-136 549 -140 545 -6 -7 -68 -418 -115 -761 -14 -102 -32 -198 -40 -214 -21
-41 -56 -52 -254 -82 -289 -44 -340 -63 -340 -128 0 -60 121 -1160 151 -1371
40 -283 65 -386 99 -404 56 -29 226 1 2185 384 879 172 1524 308 1736 365 74
20 77 22 83 54 8 41 -8 367 -35 710 -40 523 -79 828 -108 858 -24 25 -78 31
-144 17 -66 -13 -117 -45 -135 -84 -24 -49 -51 -205 -67 -391 -25 -280 -40
-355 -70 -355 -40 0 -90 157 -264 835 -55 215 -125 473 -155 575 -77 260 -90
288 -116 241z"/>
</g>
</svg>
