<?xml version="1.0" standalone="no"?>
<!DOCTYPE svg PUBLIC "-//W3C//DTD SVG 20010904//EN"
 "http://www.w3.org/TR/2001/REC-SVG-20010904/DTD/svg10.dtd">
<svg version="1.0" xmlns="http://www.w3.org/2000/svg"
 width="419.000000pt" height="410.000000pt" viewBox="0 0 419.000000 410.000000"
 preserveAspectRatio="xMidYMid meet">

<g transform="translate(0.000000,410.000000) scale(0.100000,-0.100000)"
fill="#000000" stroke="none">
<path d="M3571 3439 c-13 -5 -33 -18 -45 -29 -61 -56 -78 -70 -89 -70 -11 0
-72 -51 -133 -110 -12 -11 -25 -20 -31 -20 -5 0 -15 -10 -22 -22 -6 -13 -30
-32 -51 -42 -37 -18 -68 -41 -126 -96 -12 -11 -27 -20 -33 -20 -6 0 -11 -4
-11 -10 0 -5 -7 -10 -16 -10 -8 0 -13 -4 -10 -8 8 -13 -9 -33 -30 -36 -10 -2
-18 -10 -18 -19 1 -10 -5 -14 -16 -12 -11 2 -22 -6 -29 -21 -6 -13 -17 -24
-24 -24 -8 0 -22 -9 -32 -20 -10 -11 -22 -20 -27 -20 -14 0 -38 -27 -31 -34 4
-3 0 -6 -8 -6 -8 0 -29 -13 -47 -30 -18 -16 -40 -30 -48 -30 -8 0 -14 -5 -14
-11 0 -5 5 -7 10 -4 6 3 10 2 10 -3 0 -5 -11 -14 -25 -20 -14 -6 -25 -17 -25
-23 0 -6 -7 -9 -15 -5 -10 3 -15 -1 -15 -12 0 -13 -2 -14 -8 -4 -5 7 -16 10
-25 6 -18 -7 -23 -24 -7 -24 6 0 10 -5 10 -11 0 -6 -7 -9 -15 -6 -8 4 -22 -4
-32 -16 -21 -25 -43 -33 -43 -15 0 6 -9 3 -20 -7 -11 -10 -20 -24 -20 -32 0
-10 -6 -12 -21 -8 -15 5 -19 4 -15 -4 4 -6 0 -11 -10 -11 -10 0 -15 -3 -11 -6
3 -3 -2 -14 -11 -25 -12 -14 -18 -15 -24 -6 -6 9 -8 9 -8 0 0 -7 -9 -13 -20
-13 -11 0 -20 -4 -20 -10 0 -5 -6 -10 -14 -10 -8 0 -27 -15 -42 -32 -15 -18
-29 -31 -32 -29 -5 4 -60 -42 -121 -100 -36 -36 -38 -36 -64 -21 -24 15 -27
15 -44 -4 -10 -11 -34 -31 -53 -44 -19 -13 -54 -43 -77 -67 -23 -24 -46 -43
-51 -43 -6 0 -12 -4 -14 -8 -1 -4 -23 -23 -47 -42 -88 -70 -473 -445 -484
-471 -4 -10 -6 -10 -6 -1 -2 24 -27 11 -75 -37 -45 -46 -48 -52 -43 -88 6 -37
4 -39 -51 -76 -31 -21 -145 -100 -252 -175 -108 -75 -275 -192 -371 -260 -164
-115 -247 -187 -200 -175 14 3 20 -2 23 -21 3 -15 1 -29 -3 -32 -17 -10 -9
-34 17 -50 19 -13 28 -14 37 -5 6 6 17 11 25 11 8 0 58 31 111 68 53 38 164
116 246 174 83 57 229 160 325 227 96 68 180 125 186 128 7 2 24 -3 38 -12 24
-16 29 -14 193 58 92 42 242 108 333 147 187 82 369 171 450 221 48 30 94 61
289 200 56 40 1079 773 1238 887 78 56 151 114 162 129 28 34 26 78 -4 158
-50 135 -192 303 -290 345 -52 22 -51 22 -84 9z m-211 -419 c0 -5 -4 -10 -10
-10 -5 0 -10 5 -10 10 0 6 5 10 10 10 6 0 10 -4 10 -10z m-26 -15 c4 -10 -1
-15 -14 -15 -13 0 -18 5 -14 15 4 8 10 15 14 15 4 0 10 -7 14 -15z m-234 -89
c0 -2 -12 -11 -27 -20 l-28 -17 24 20 c23 21 31 25 31 17z m270 -191 c0 -2
-48 -37 -107 -76 -60 -40 -152 -104 -207 -143 -54 -39 -123 -89 -155 -112 -75
-54 -126 -102 -118 -110 4 -4 15 -1 24 6 10 7 -2 -6 -27 -29 -25 -23 -71 -59
-104 -81 -48 -33 -61 -38 -73 -28 -13 10 -13 13 1 24 9 6 16 15 16 20 0 14 82
84 91 78 5 -3 9 -1 9 5 0 5 21 23 48 40 26 16 65 43 87 59 217 155 502 352
511 352 2 0 4 -2 4 -5z m-380 -37 c-12 -10 -25 -16 -28 -13 -9 8 30 45 41 38
6 -4 1 -14 -13 -25z m-56 -37 c-47 -45 -387 -280 -396 -274 -12 7 5 21 110 93
40 28 78 47 84 44 6 -4 8 -3 5 3 -7 11 41 49 56 45 4 -1 7 3 7 9 0 5 5 7 10 4
6 -3 10 0 10 8 0 8 16 22 37 33 20 10 47 29 61 42 30 26 45 20 16 -7z m-339
-96 c-35 -31 -39 -40 -12 -36 16 2 5 -9 -45 -45 -29 -21 -57 -44 -61 -51 -6
-9 -13 -10 -27 -3 -15 8 -17 7 -13 -13 l6 -22 -22 22 c-11 12 -21 26 -21 30 0
10 211 152 225 152 6 0 -8 -15 -30 -34z m268 -15 c3 -11 1 -18 -4 -14 -5 3 -9
12 -9 20 0 20 7 17 13 -6z m-67 -34 c-19 -16 -26 -28 -21 -37 7 -12 6 -12 -6
-1 -12 11 -9 17 16 38 17 13 32 24 35 24 3 -1 -8 -11 -24 -24z m-355 -264 c-6
-2 -9 -8 -6 -13 3 -4 -6 -11 -20 -15 -14 -3 -25 -10 -25 -14 0 -6 -70 -57
-129 -95 -8 -5 -20 -15 -26 -22 -7 -8 -28 12 -74 75 -36 48 -57 81 -48 73 10
-8 20 -11 24 -8 3 4 11 2 18 -3 8 -7 19 -3 33 11 12 11 27 17 33 13 6 -3 19 2
30 12 53 52 61 58 54 44 -4 -8 2 -5 14 8 12 12 31 22 41 22 15 0 20 7 20 28 0
22 7 13 36 -43 21 -41 31 -71 25 -73z m203 123 c4 -12 2 -13 -14 -3 -16 10
-23 10 -37 -5 -15 -15 -16 -20 -4 -40 13 -20 13 -21 -2 -8 -10 7 -17 22 -17
32 0 33 62 53 74 24z m-746 -317 c-174 -172 -176 -173 -176 -138 0 19 3 29 5
22 3 -6 9 -10 13 -7 5 3 7 12 3 20 -3 10 1 15 12 15 10 0 36 17 59 38 23 20
73 64 111 97 39 33 86 76 105 95 19 19 37 34 39 33 2 -1 -75 -80 -171 -175z
m-197 -151 c-10 -9 -11 -8 -5 6 3 10 9 15 12 12 3 -3 0 -11 -7 -18z m529 -32
c0 -2 -13 -11 -30 -20 -38 -19 -40 -11 -2 9 31 17 32 18 32 11z m-532 -25 c-7
-10 -14 -17 -17 -15 -4 4 18 35 25 35 2 0 -1 -9 -8 -20z m462 -15 c0 -6 -177
-95 -187 -94 -6 0 174 96 185 98 1 1 2 -1 2 -4z m-230 -115 c-8 -5 -19 -10
-25 -10 -5 0 -3 5 5 10 8 5 20 10 25 10 6 0 3 -5 -5 -10z"/>
</g>
</svg>
